M48
;Layer_Color=9474304
;FILE_FORMAT=4:4
METRIC,LZ
;TYPE=PLATED
T1F00S00C0.3000
T2F00S00C0.5000
T3F00S00C0.8000
T4F00S00C1.0000
T5F00S00C2.6000
%
T01
X0008271Y0003011
X0019356Y0003065
X0016003Y001469
X0024123Y0014721
X002485Y0014065
X0025613Y0014721
X0025591Y0019721
X002485Y0019047
X0024108Y0019721
X0025533Y0030832
X0015409Y0025505
X0010758Y0019178
X0008217Y0030101
X0033252Y0026856
X0032928Y0016042
X0030927Y0002957
X0033144Y003978
X0029954Y0054109
X0018599Y0053947
X0013408Y0048593
X0013624Y0041997
X0007947Y0041888
X0010812Y0036103
X0025466Y0037725
X0007947Y0054001
T02
X0039128Y0035625
Y0036571
T03
X0029Y00075
Y00095
Y00115
Y00135
Y00195
Y00215
Y00235
Y00255
X0037
Y00235
Y00215
Y00195
Y00135
Y00115
Y00095
Y00075
Y00315
Y00335
X00304Y00325
Y00345
Y00365
X0037Y00355
Y00375
Y00435
Y00455
Y00475
Y00495
X0029
Y00475
Y00455
Y00435
T04
X000411Y001339
Y001593
Y001847
Y002101
Y002355
Y002609
Y002863
Y003117
Y003371
X002189
Y003117
Y002863
Y002609
Y002355
Y002101
Y001847
Y001593
Y001339
Y003625
Y003879
Y004133
Y004387
Y004641
X000411
Y004387
Y004133
Y003879
Y003625
T05
X000254Y000254
X003746
Y005446
X000254
M30
