G04 Layer_Color=8388736*
%FSLAX44Y44*%
%MOMM*%
G71*
G01*
G75*
%ADD14C,0.1000*%
%ADD22R,0.8032X0.7032*%
%ADD23C,1.8032*%
%ADD24R,1.8032X1.8032*%
%ADD25R,1.5032X1.5032*%
%ADD26C,1.5032*%
%ADD27C,3.7032*%
D14*
X400000Y544600D02*
G03*
X374600Y570000I-25400J0D01*
G01*
X25400D02*
G03*
X0Y544600I0J-25400D01*
G01*
X374600Y0D02*
G03*
X400000Y25400I0J25400D01*
G01*
X0D02*
G03*
X25400Y0I25400J0D01*
G01*
X25600Y570000D02*
X374600D01*
X400000Y25400D02*
Y544600D01*
X25400Y0D02*
X374600D01*
X0Y25400D02*
Y544600D01*
D22*
X248500Y157210D02*
D03*
Y147210D02*
D03*
Y207210D02*
D03*
Y197210D02*
D03*
Y182210D02*
D03*
Y172210D02*
D03*
Y232210D02*
D03*
Y222210D02*
D03*
D23*
X218900Y362500D02*
D03*
Y387900D02*
D03*
Y413300D02*
D03*
Y438700D02*
D03*
Y464100D02*
D03*
Y337100D02*
D03*
Y311700D02*
D03*
Y286300D02*
D03*
Y260900D02*
D03*
Y235500D02*
D03*
Y210100D02*
D03*
Y184700D02*
D03*
Y159300D02*
D03*
Y133900D02*
D03*
X41100D02*
D03*
Y159300D02*
D03*
Y184700D02*
D03*
Y210100D02*
D03*
Y235500D02*
D03*
Y260900D02*
D03*
Y286300D02*
D03*
Y311700D02*
D03*
Y337100D02*
D03*
Y438700D02*
D03*
Y413300D02*
D03*
Y387900D02*
D03*
Y362500D02*
D03*
D24*
Y464100D02*
D03*
D25*
X370000Y75000D02*
D03*
X290000Y435000D02*
D03*
X370000Y315000D02*
D03*
X290000Y75000D02*
D03*
X370000Y435000D02*
D03*
Y195000D02*
D03*
X290000D02*
D03*
X304000Y325000D02*
D03*
D26*
X370000Y95000D02*
D03*
Y115000D02*
D03*
Y135000D02*
D03*
X290000Y495000D02*
D03*
Y475000D02*
D03*
Y455000D02*
D03*
X370000Y335000D02*
D03*
Y355000D02*
D03*
Y375000D02*
D03*
X290000Y135000D02*
D03*
Y115000D02*
D03*
Y95000D02*
D03*
X370000Y455000D02*
D03*
Y475000D02*
D03*
Y495000D02*
D03*
Y255000D02*
D03*
Y235000D02*
D03*
Y215000D02*
D03*
X290000D02*
D03*
Y235000D02*
D03*
Y255000D02*
D03*
X304000Y365000D02*
D03*
Y345000D02*
D03*
D27*
X374600Y25400D02*
D03*
X25400D02*
D03*
Y544600D02*
D03*
X374600D02*
D03*
M02*
